<?xml version="1.0" standalone="no"?>
<!DOCTYPE svg PUBLIC "-//W3C//DTD SVG 20010904//EN"
 "http://www.w3.org/TR/2001/REC-SVG-20010904/DTD/svg10.dtd">
<svg version="1.0" xmlns="http://www.w3.org/2000/svg"
 width="260.000000pt" height="260.000000pt" viewBox="0 0 260.000000 260.000000"
 preserveAspectRatio="xMidYMid meet">
<metadata>
Created by potrace 1.11, written by Peter Selinger 2001-2013
</metadata>
<g transform="translate(0.000000,260.000000) scale(0.100000,-0.100000)"
fill="#000000" stroke="none">
<path d="M0 1300 l0 -1300 1300 0 1300 0 0 1300 0 1300 -1300 0 -1300 0 0
-1300z m1228 -32 l2 -588 -172 0 c-278 1 -405 36 -502 140 -97 103 -139 237
-139 440 0 218 51 368 163 480 99 99 176 118 460 116 l185 -1 3 -587z m537
582 c92 -13 205 -69 249 -124 49 -61 81 -122 112 -211 26 -75 28 -91 29 -245
0 -180 -11 -241 -66 -350 -31 -64 -128 -161 -185 -185 -93 -40 -138 -47 -346
-52 l-208 -5 0 591 0 591 173 0 c94 0 204 -5 242 -10z"/>
<path d="M831 1679 c-85 -25 -153 -101 -186 -209 -9 -30 -19 -104 -22 -163
-13 -238 58 -390 204 -443 21 -7 75 -13 121 -14 l82 0 0 420 0 420 -82 -1
c-46 0 -98 -5 -117 -10z"/>
<path d="M1550 1271 l0 -421 73 0 c154 0 248 60 297 190 23 60 25 78 25 230
-1 144 -4 172 -23 223 -27 74 -72 130 -130 164 -40 24 -60 28 -144 31 l-98 4
0 -421z"/>
</g>
</svg>
